<?xml version="1.0" encoding="UTF-8"?>
<svg width="457px" height="545px" viewBox="0 0 457 545" version="1.1" xmlns="http://www.w3.org/2000/svg" xmlns:xlink="http://www.w3.org/1999/xlink">
    <!-- Generator: Sketch 52.1 (67048) - http://www.bohemiancoding.com/sketch -->
    <title>llama copy</title>
    <desc>Created with Sketch.</desc>
    <defs>
        <linearGradient x1="37.3832526%" y1="100%" x2="50%" y2="0%" id="linearGradient-1">
            <stop stop-color="#BF9054" offset="0%"></stop>
            <stop stop-color="#4C4137" offset="100%"></stop>
        </linearGradient>
        <linearGradient x1="50%" y1="0%" x2="50%" y2="100%" id="linearGradient-2">
            <stop stop-color="#BF9054" offset="0%"></stop>
            <stop stop-color="#382616" offset="100%"></stop>
        </linearGradient>
        <linearGradient x1="50%" y1="0%" x2="50%" y2="100%" id="linearGradient-3">
            <stop stop-color="#FFF8EA" offset="0%"></stop>
            <stop stop-color="#C7A266" offset="100%"></stop>
        </linearGradient>
        <path d="M274.22137,151.809722 C267.620528,123.662538 270.410372,109.588946 282.590903,109.588946 C300.861698,109.588946 287.358905,81.3226279 294.110301,81.3226279 C298.611232,81.3226279 306.345817,73.0211724 317.314054,56.4182614 C321.678832,42.3970363 327.361944,37.703657 334.363393,42.3381236 C344.865565,49.2898234 332.340723,28.2776233 348.482806,28.2776233 C364.624888,28.2776233 381.371808,14.5473743 394.583965,22.4927352 C403.39207,27.7896424 403.39207,34.4047719 394.583965,42.3381236 C399.325784,38.0037015 405.001042,38.0037015 411.609739,42.3381236 C418.218436,46.6725456 421.522784,55.3039123 421.522784,68.2322236 L440.704763,109.588946 C444.719069,124.434488 444.719069,132.894353 440.704763,134.968542 C434.683303,138.079825 448.676215,143.580058 436.515423,160.429285 C435.076929,162.422371 439.085318,166.155347 440.704763,168.07032 C442.29557,169.951429 444.115636,171.542645 444.970188,176.859903 C445.814954,182.116267 448.601313,189.427571 430.766127,203.705869 C430.559509,203.871281 434.594495,208.030511 434.683303,208.414485 C436.515423,216.335876 436.609267,222.144096 434.683303,226.532529 C432.757339,230.920962 429.699244,233.938234 426.976134,235.710417 C424.253025,237.482599 426.976134,246.888224 426.976134,253.894108 C426.976134,260.899992 431.68488,280.650522 414.659106,297.569934 C411.880131,300.331548 415.216256,301.537761 416.022919,305.147437 C417.079638,309.876071 416.108568,317.10506 414.659106,321 C413.350199,324.517245 408.039027,328.751083 398.725588,333.701516 C399.201049,350.958417 397.820508,361.82569 394.583965,366.303335 C389.729151,373.019803 377.372593,379.168537 373.436446,376.499838 C371.867324,375.435977 375.191239,389.377772 373.436446,400.658407 C371.626494,412.293624 364.695315,421.575285 360.210901,440.486769 C359.341068,444.154993 360.003861,455.108783 358.94234,458.762164 C358.297609,460.981101 354.245689,464.377505 353.544099,466.562415 C352.079662,471.123007 353.598695,478.788953 351.04075,483.942875 C348.482806,489.096797 342.698014,486.561849 341.370353,487.516901 C340.042691,488.471953 334.882437,494.303815 331.139023,494.303815 C327.395609,494.303815 326.055811,493.00916 324.654274,492.524126 C323.252736,492.039092 319.071845,486.180585 318.405928,487.516901 C317.740012,488.853218 311.682901,487.362289 307.516573,485.225533 C303.350245,483.088776 306.750148,468.584105 304.835685,471.111138 C302.949694,473.600587 297.470293,469.537942 297.470293,473.907783 C297.470293,478.277624 294.855761,479.771507 291.442162,480.67681 C289.305257,481.243528 290.529357,485.46888 290.068064,489.096797 C289.792464,491.264298 288.243636,492.892837 286.879751,494.303815 C276.627307,504.910268 266.557554,496.187143 261.140511,491.212325 C258.286594,488.59139 264.225831,480.714133 261.140511,482.496458 C257.813908,484.418167 245.189129,473.907783 245.189129,466.562415 C245.189129,459.217047 236.296561,457.412558 234.37522,445.711831 C233.229432,438.734132 236.154993,428.658888 234.37522,430.4392 C232.708472,432.106452 236.466761,422.38656 234.37522,423.240643 C230.653733,424.760317 222.940746,427.509628 214.098189,430.4392 C200.611825,434.907282 181.834477,434.975701 177.124405,437.041827 C174.523497,438.182744 171.392486,437.784994 169.023037,438.863064 C165.399221,440.511856 167.746602,450.410644 164.692927,451.811263 C158.607157,454.602602 157.15871,451.204655 153.745626,452.911478 C151.604375,453.98228 151.487796,461.857905 150.597611,462.330701 C136.203392,469.975766 138.941291,465.867886 137.341765,466.562415 C135.768016,467.245753 136.580473,475.566282 135.016527,476.235406 C130.635672,478.109727 134.702435,478.923474 130.377975,480.67681 C128.308383,481.515918 126.405408,485.225533 122.507493,486.561849 C118.609579,487.898165 118.550993,484.514901 116.692855,485.225533 C112.860318,486.691258 103.642893,487.954607 102.603899,485.225533 C101.564904,482.496458 101.564904,473.405531 100.146161,473.907783 C98.9317098,474.337713 97.9898347,464.833249 96.7856358,465.255512 C95.2759582,465.784894 95.9540088,470.596158 94.4603975,471.111138 C93.3371378,471.498425 95.5748705,482.11997 94.4603975,482.496458 C89.7877125,484.074973 92.8344124,485.187597 88.3026897,486.561849 C87.8560359,486.697297 93.3147978,495.106703 81.9712262,498.580747 C70.6276545,502.054791 55.8437107,495.683089 53.8959727,496.187143 C49.1560239,497.413791 48.0891047,495.391622 46.4301175,491.212325 C45.3988389,488.614343 47.5906114,483.013593 46.4301175,482.496458 C45.2877485,481.987399 43.0310896,480.313493 39.6601409,477.474738 C40.8791724,473.023 40.8791724,470.13255 39.6601409,468.803388 C37.8315937,466.809646 33.0640451,462.158515 31.2359027,462.330701 C22.9615602,463.110033 21.6323461,433.49554 24.439326,423.240643 C25.200492,420.459833 27.7539134,418.961059 28.8354174,416.368273 C30.3076685,412.838713 30.168549,408.307484 31.2359027,405.709218 C33.8792354,399.274535 25.2628975,377.534867 28.8354174,376.499838 C30.3482739,376.061533 32.6780871,354.656543 34.2660866,347.432228 C35.399084,342.277862 32.5071999,345.452647 24.439326,343.937141 C20.147445,343.130934 19.0320396,336.475081 18.0217976,336.475081 C9.76875579,336.475081 -1.67240114,330.146131 0.894892327,324.356822 C2.13735068,321.555047 9.78200665,323.040612 14,321 C18.1249144,319.004418 13.2901291,317.065497 21.5090524,311.987934 C29.7279757,306.91037 42.0702367,306.446515 39.6601409,305.147437 C38.2142026,304.368055 44.1183773,274.191417 49.4574632,269.644337 C53.5289018,266.17686 58.9328707,267.197711 58.0101612,266.606471 C56.6907686,265.761051 59.6382335,259.321138 67.0991939,253.894108 C72.0389733,250.30096 72.0389733,253.894108 81.9712262,246.514006 C91.903479,239.133904 88.9312963,243.950112 100.146161,243.950112 C102.603899,243.950112 95.7850261,238.931412 105.733832,234.515346 C115.682638,230.09928 123.240713,236.677253 122.507493,235.710417 C121.968648,234.999885 135.270349,230.865894 153.745626,230.48176 C180.159662,229.932565 214.743582,233.192106 214.098189,232.249233 C212.069225,229.285062 237.789565,217.136667 252.039123,208.414485 C256.326442,205.790209 245.189129,200.976655 252.039123,190.000664 C257.031305,182.001513 268.035364,185.48555 267.112475,183.382298 C258.840871,164.531417 261.210503,154.007225 274.22137,151.809722 Z" id="path-4"></path>
        <radialGradient cx="50%" cy="51.0286359%" fx="50%" fy="51.0286359%" r="63.1791805%" gradientTransform="translate(0.500000,0.510286),scale(1.000000,0.711111),rotate(-90.000000),scale(1.000000,0.713602),translate(-0.500000,-0.510286)" id="radialGradient-5">
            <stop stop-color="#3A2B1B" stop-opacity="0.6622226" offset="4.79362355%"></stop>
            <stop stop-color="#44321F" stop-opacity="0.219542572" offset="69.4589957%"></stop>
            <stop stop-color="#664A2B" stop-opacity="0" offset="100%"></stop>
        </radialGradient>
        <linearGradient x1="0%" y1="0%" x2="101.999998%" y2="100.999999%" id="linearGradient-6">
            <stop stop-color="#F7FF0D" offset="0%"></stop>
            <stop stop-color="#FF405F" offset="47.7620327%"></stop>
            <stop stop-color="#3B22F7" offset="100%"></stop>
        </linearGradient>
        <radialGradient cx="50%" cy="53.0540531%" fx="50%" fy="53.0540531%" r="149.251972%" gradientTransform="translate(0.500000,0.530541),scale(0.624699,1.000000),rotate(90.000000),scale(1.000000,1.588912),translate(-0.500000,-0.530541)" id="radialGradient-7">
            <stop stop-color="#322B2B" offset="0%"></stop>
            <stop stop-color="#C27649" offset="100%"></stop>
        </radialGradient>
        <radialGradient cx="50%" cy="50%" fx="50%" fy="50%" r="159.690559%" gradientTransform="translate(0.500000,0.500000),scale(0.624699,1.000000),rotate(90.000000),scale(1.000000,1.588912),translate(-0.500000,-0.500000)" id="radialGradient-8">
            <stop stop-color="#322B2B" offset="1.91248194%"></stop>
            <stop stop-color="#C27649" offset="95.3757225%"></stop>
        </radialGradient>
    </defs>
    <g id="Page-1" stroke="none" stroke-width="1" fill="none" fill-rule="evenodd">
        <g id="llama-copy" fill-rule="nonzero">
            <path d="M323.24755,48.7529502 C315.825551,23.0749358 312.114551,9.2280294 312.114551,7.21223107 C312.114551,5.6781297 311.337317,0.126235192 307.648159,0.00204173444 C304.066025,-0.118548794 297.568816,5.13488864 297.568816,7.21223107 C297.568816,10.023398 293.045877,20.9006401 284,39.8439573 C289.009237,72.8647224 293.532176,89.375105 297.568816,89.375105 C301.605455,89.375105 310.165034,75.8343867 323.24755,48.7529502 Z" id="Path-2" fill="url(#linearGradient-1)"></path>
            <path d="M318.24755,55.6612643 C312.905732,36.8785967 310.234822,26.750016 310.234822,25.2755223 C310.234822,24.153375 309.675425,20.0923371 307.020236,20.0014935 C304.442075,19.9132853 299.765853,23.7560111 299.765853,25.2755223 C299.765853,26.1283217 301.417912,39.630673 299.765853,38.993292 C293.255284,36.4814488 291.487732,39.8194989 294.463195,49.0074422 C292.650269,52.0908908 291.769599,54.3088315 291.821185,55.6612643 C292.583353,75.6431167 297.128343,85.375105 299.765853,85.375105 C302.671134,85.375105 308.8317,75.4704914 318.24755,55.6612643 Z" id="Path-2-Copy-2" fill="#FFCFBB"></path>
            <path d="M269.5,426 L269.5,426 C280.821837,426 290,435.178163 290,446.5 L290,532.407128 C290,536.273122 286.865993,539.407128 283,539.407128 C281.859458,539.407128 280.736191,539.128438 279.727924,538.595304 L268.971021,532.907456 C256.685552,526.411359 249,513.653709 249,499.756515 L249,446.5 C249,435.178163 258.178163,426 269.5,426 Z" id="Rectangle" fill="url(#linearGradient-2)"></path>
            <path d="M328.5,423 L328.5,423 C339.821837,423 349,432.178163 349,443.5 L349,529.407128 C349,533.273122 345.865993,536.407128 342,536.407128 C340.859458,536.407128 339.736191,536.128438 338.727924,535.595304 L327.971021,529.907456 C315.685552,523.411359 308,510.653709 308,496.756515 L308,443.5 C308,432.178163 317.178163,423 328.5,423 Z" id="Rectangle-Copy" fill="url(#linearGradient-2)"></path>
            <path d="M122,411 L122,411 C132.49341,411 141,419.50659 141,430 L141,508.731344 C141,512.597337 137.865993,515.731344 134,515.731344 C132.859832,515.731344 131.736921,515.452836 130.7289,514.920036 L122,510.306281 C110.312168,504.128551 103,491.992867 103,478.772815 L103,430 C103,419.50659 111.50659,411 122,411 Z" id="Rectangle-Copy-2" fill="url(#linearGradient-2)"></path>
            <path d="M66.5,431 L66.5,431 C77.8218374,431 87,440.178163 87,451.5 L87,537.407128 C87,541.273122 83.8659932,544.407128 80,544.407128 C78.8594582,544.407128 77.7361915,544.128438 76.7279239,543.595304 L65.9710211,537.907456 C53.685552,531.411359 46,518.653709 46,504.756515 L46,451.5 C46,440.178163 55.1781626,431 66.5,431 Z" id="Rectangle-Copy-3" fill="url(#linearGradient-2)"></path>
            <path d="M455.458512,66.7024678 C448.036512,41.0244534 444.325512,27.177547 444.325512,25.1617487 C444.325512,23.6276473 443.548278,18.0757528 439.85912,17.9515594 C436.276986,17.8309688 429.779777,23.0844063 429.779777,25.1617487 C429.779777,27.9729156 425.256838,38.8501577 416.210961,57.7934749 C421.220198,90.8142401 425.743137,107.324623 429.779777,107.324623 C433.816416,107.324623 442.375995,93.7839044 455.458512,66.7024678 Z" id="Path-2-Copy" fill="url(#linearGradient-1)" transform="translate(435.834736, 62.637070) scale(-1, 1) rotate(-23.000000) translate(-435.834736, -62.637070) "></path>
            <path d="M447.829454,66.4245117 C446.326691,61.799481 445.023437,62.8632542 444.444486,60.159088 C443.449697,55.5126331 444.793448,52.2350655 444.278478,50.876278 C442.68762,46.6786782 441.25687,50.7211783 440.754443,48.8023056 C439.540724,44.1668601 440.511018,39.9840702 440.511018,39.2812287 C440.511018,38.1590813 439.951621,34.0980434 437.296431,34.0071998 C434.71827,33.9189916 430.042049,37.7617174 430.042049,39.2812287 C430.042049,41.3375097 426.384541,51.7905394 419.069525,70.6403177 C428.380386,88.5722327 434.488457,97.5381902 437.393738,97.5381902 C441.751661,97.5381902 449.332218,71.0495424 447.829454,66.4245117 Z" id="Path-2-Copy-3" fill="#FFCFBB" transform="translate(433.546536, 65.771948) rotate(18.000000) translate(-433.546536, -65.771948) "></path>
            <g id="Path">
                <use fill="#FFE9DB" xlink:href="#path-4"></use>
                <use fill-opacity="0.49" fill="url(#linearGradient-3)" xlink:href="#path-4"></use>
            </g>
            <path d="M267.234052,183.262559 C268.443753,183.849267 268.466145,186.240509 268.874975,188.515369 C276.600411,231.502138 307.687047,305.178447 323.24755,305.178447 C331.935472,305.178447 364.778995,316.026878 391.848079,301.643133 C406.839476,293.677129 418.064777,247.632734 425.888992,236.656982 C426.361743,235.993811 429.127303,251.108895 428.44983,259.982486 C426.623111,283.908988 418.965492,319.579265 415.451836,323.689193 C396.051679,346.381581 397.730666,352.714006 362.867494,349.631339 C328.004322,346.548673 308.767808,339.273719 284,305.178447 C267.488128,282.448266 255.821461,251.712343 249,212.970678 C248.577024,199.034222 249.665613,190.882453 252.265765,188.515369 C254.473081,186.505909 263.777515,181.586132 267.234052,183.262559 Z" id="Path-3" fill="#463D3D"></path>
            <path d="M362.484108,193 C380.15722,193 394.484108,172.852814 394.484108,148 C394.484108,135.285281 384.425094,126.324684 378.395743,118.14091 C372.639828,110.328279 371.115641,103 362.484108,103 C356.541867,103 352.025778,114.172544 347.257513,118.14091 C337.844246,125.97506 330.484108,131.503462 330.484108,148 C330.484108,172.852814 344.810996,193 362.484108,193 Z" id="Oval" fill="url(#radialGradient-5)"></path>
            <path d="M351.701783,142.069592 L358.701775,142.069592 C359.25406,142.069592 359.701775,142.517308 359.701775,143.069592 L359.701775,144.26557 C359.701775,144.502821 359.617423,144.732344 359.463789,144.913132 C358.482366,146.068014 357.800861,146.645455 357.419276,146.645455 C357.007573,146.645455 356.172391,145.973266 354.913729,144.628887 L351.701783,144.628887 C351.149498,144.628887 350.701783,144.181172 350.701783,143.628887 L350.701783,143.069592 C350.701783,142.517308 351.149498,142.069592 351.701783,142.069592 Z" id="Rectangle" fill="#484032" transform="translate(355.201812, 144.357489) rotate(17.000000) translate(-355.201812, -144.357489) "></path>
            <path d="M367.496502,141.771855 L375.496487,141.771855 C376.048772,141.771855 376.496487,142.21957 376.496487,142.771855 L376.496479,143.937841 C376.496479,144.193314 376.398701,144.439098 376.223212,144.624758 C375.137492,145.773398 374.383214,146.347718 373.960378,146.347718 C373.502931,146.347718 372.574951,145.675529 371.176439,144.33115 L367.496502,144.33115 C366.944217,144.33115 366.496502,143.883434 366.496502,143.33115 L366.496502,142.771855 C366.496502,142.21957 366.944217,141.771855 367.496502,141.771855 Z" id="Rectangle-Copy-4" fill="#484032" transform="translate(371.496531, 144.059751) scale(-1, 1) rotate(23.000000) translate(-371.496531, -144.059751) "></path>
            <g id="camera" transform="translate(357.061339, 326.166968) rotate(1.000000) translate(-357.061339, -326.166968) translate(318.561339, 293.666968)" stroke="#FFFFFF">
                <path d="M53.2400071,1.5 L51.7956563,4.5 L65.8101013,4.5 L64.0773707,1.5 L53.2400071,1.5 Z" id="Rectangle" stroke-width="3" fill="#FFFFFF"></path>
                <rect id="Rectangle" stroke-width="3" fill="url(#linearGradient-6)" x="1.5" y="5.5" width="74" height="58" rx="5"></rect>
                <circle id="Oval" stroke-width="4" cx="38.5" cy="34.5" r="16.5"></circle>
            </g>
            <path d="M330.276117,120.291158 C335.24668,120.291158 339.276117,116.261721 339.276117,111.291158 C339.276117,106.320596 335.24668,107.035703 330.276117,107.035703 C325.305554,107.035703 318,106.320596 318,111.291158 C318,116.261721 325.305554,120.291158 330.276117,120.291158 Z" id="Oval" fill="url(#radialGradient-7)"></path>
            <path d="M399.276117,120.291158 C404.24668,120.291158 408.276117,116.261721 408.276117,111.291158 C408.276117,106.320596 404.24668,107.035703 399.276117,107.035703 C394.305554,107.035703 387,106.320596 387,111.291158 C387,116.261721 394.305554,120.291158 399.276117,120.291158 Z" id="Oval-Copy" fill="url(#radialGradient-8)" transform="translate(397.638058, 113.645579) scale(-1, 1) translate(-397.638058, -113.645579) "></path>
            <ellipse id="Oval" fill="#FFFFFF" cx="334" cy="112.5" rx="2" ry="1.5"></ellipse>
            <ellipse id="Oval-Copy-2" fill="#FFFFFF" cx="392" cy="112.5" rx="2" ry="1.5"></ellipse>
            <circle id="Oval" fill="#FFFFFF" cx="382.5" cy="309.5" r="4.5"></circle>
            <path d="M351.635012,157.040538 C353.680627,157.040538 358.015088,156.174506 359.826107,155.02129 C362.184231,153.51969 361.596736,150 363.130151,150 C364.541488,150 364.211673,153.74926 366.321636,155.02129 C368.264738,156.192724 372.463755,157.806497 374.510992,157.040538 C376.558229,156.27458 378.871184,156.192724 377.130151,158.858984 C376.711255,159.50049 375.118997,159.842504 372.625421,159.310488 C369.776514,158.702661 365.863702,157.152352 363.130151,157.040538 C361.063432,156.956001 356.146103,158.844676 353.279556,159.310488 C349.130609,159.98469 347.207038,159.295597 347.118346,158.858984 C346.338769,155.02129 349.589397,157.040538 351.635012,157.040538 Z" id="Rectangle" fill="#484032"></path>
        </g>
    </g>
</svg>